<mxfile host="app.diagrams.net" modified="2022-11-17T01:51:59.407Z" agent="5.0 (Windows)" etag="O9vS_nUXoSLikEo1sPLF" version="20.5.3" type="github">
  <diagram name="Page-1" id="e7e014a7-5840-1c2e-5031-d8a46d1fe8dd">
    <mxGraphModel dx="918" dy="911" grid="1" gridSize="10" guides="1" tooltips="1" connect="1" arrows="1" fold="1" page="1" pageScale="1" pageWidth="1169" pageHeight="826" background="none" math="0" shadow="0">
      <root>
        <mxCell id="0" />
        <mxCell id="1" parent="0" />
        <mxCell id="CiWtr2rwPYMFVtfKceDI-41" value="Cliente" style="rounded=0;whiteSpace=wrap;html=1;" vertex="1" parent="1">
          <mxGeometry x="275" y="318" width="190" height="30" as="geometry" />
        </mxCell>
        <mxCell id="CiWtr2rwPYMFVtfKceDI-42" value="&lt;div&gt;+imprimirDados(): void&lt;/div&gt;&lt;div&gt;+criarConta():Void&lt;/div&gt;&lt;div&gt;+fazCompras(): Void&lt;br&gt;&lt;/div&gt;" style="rounded=0;whiteSpace=wrap;html=1;" vertex="1" parent="1">
          <mxGeometry x="275" y="428" width="190" height="80" as="geometry" />
        </mxCell>
        <mxCell id="CiWtr2rwPYMFVtfKceDI-43" value="&lt;div&gt;- nome: String&lt;/div&gt;&lt;div&gt;-sobrenome: String&lt;/div&gt;&lt;div&gt;-endereço: String&lt;/div&gt;&lt;div&gt;-email: String&lt;/div&gt;&lt;div&gt;CPF/RG: Inter&lt;br&gt;&lt;/div&gt;" style="rounded=0;whiteSpace=wrap;html=1;" vertex="1" parent="1">
          <mxGeometry x="275" y="348" width="190" height="80" as="geometry" />
        </mxCell>
        <mxCell id="CiWtr2rwPYMFVtfKceDI-44" value="Arranjo" style="rounded=0;whiteSpace=wrap;html=1;" vertex="1" parent="1">
          <mxGeometry x="625" y="318" width="190" height="30" as="geometry" />
        </mxCell>
        <mxCell id="CiWtr2rwPYMFVtfKceDI-45" value="&lt;div&gt;+getOcasião(): String&lt;/div&gt;&lt;div&gt;+getEndereço(): String&lt;/div&gt;&lt;div&gt;+getPrecisaVaso(): Boolean&lt;br&gt;&lt;/div&gt;&lt;div&gt;&lt;br&gt;&lt;/div&gt;" style="rounded=0;whiteSpace=wrap;html=1;" vertex="1" parent="1">
          <mxGeometry x="625" y="428" width="190" height="80" as="geometry" />
        </mxCell>
        <mxCell id="CiWtr2rwPYMFVtfKceDI-46" value="&lt;div&gt;- nome: String&lt;/div&gt;&lt;div&gt;-composição: String&lt;/div&gt;&lt;div&gt;-Tipo: String&lt;/div&gt;&lt;div&gt;-id: int&lt;br&gt;&lt;/div&gt;" style="rounded=0;whiteSpace=wrap;html=1;" vertex="1" parent="1">
          <mxGeometry x="625" y="348" width="190" height="80" as="geometry" />
        </mxCell>
        <mxCell id="CiWtr2rwPYMFVtfKceDI-48" value="" style="endArrow=classic;html=1;rounded=0;entryX=0;entryY=0.5;entryDx=0;entryDy=0;exitX=1;exitY=0.5;exitDx=0;exitDy=0;" edge="1" parent="1" source="CiWtr2rwPYMFVtfKceDI-43" target="CiWtr2rwPYMFVtfKceDI-46">
          <mxGeometry width="50" height="50" relative="1" as="geometry">
            <mxPoint x="535" y="378" as="sourcePoint" />
            <mxPoint x="585" y="328" as="targetPoint" />
          </mxGeometry>
        </mxCell>
        <mxCell id="CiWtr2rwPYMFVtfKceDI-49" value="Floricultura" style="rounded=0;whiteSpace=wrap;html=1;" vertex="1" parent="1">
          <mxGeometry x="450" y="20" width="190" height="30" as="geometry" />
        </mxCell>
        <mxCell id="CiWtr2rwPYMFVtfKceDI-50" value="&lt;div&gt;+criaNovosArranjo(): String&lt;/div&gt;&lt;div&gt;+alteraEnderço(): String&lt;/div&gt;&lt;div&gt;+getPrecisaVaso(): Boolean&lt;br&gt;&lt;/div&gt;&lt;div&gt;&lt;br&gt;&lt;/div&gt;" style="rounded=0;whiteSpace=wrap;html=1;" vertex="1" parent="1">
          <mxGeometry x="450" y="130" width="190" height="80" as="geometry" />
        </mxCell>
        <mxCell id="CiWtr2rwPYMFVtfKceDI-51" value="&lt;div&gt;- nome: String&lt;/div&gt;&lt;div&gt;-endereço: String&lt;/div&gt;&lt;div&gt;-CNPJ: int&lt;br&gt;&lt;/div&gt;" style="rounded=0;whiteSpace=wrap;html=1;" vertex="1" parent="1">
          <mxGeometry x="450" y="50" width="190" height="80" as="geometry" />
        </mxCell>
        <mxCell id="CiWtr2rwPYMFVtfKceDI-52" value="" style="endArrow=classic;html=1;rounded=0;entryX=0.535;entryY=0.011;entryDx=0;entryDy=0;entryPerimeter=0;exitX=1;exitY=1;exitDx=0;exitDy=0;" edge="1" parent="1" source="CiWtr2rwPYMFVtfKceDI-50" target="CiWtr2rwPYMFVtfKceDI-44">
          <mxGeometry width="50" height="50" relative="1" as="geometry">
            <mxPoint x="470" y="260" as="sourcePoint" />
            <mxPoint x="520" y="210" as="targetPoint" />
          </mxGeometry>
        </mxCell>
        <mxCell id="CiWtr2rwPYMFVtfKceDI-53" value="" style="endArrow=classic;html=1;rounded=0;entryX=0.5;entryY=0;entryDx=0;entryDy=0;exitX=0;exitY=1;exitDx=0;exitDy=0;" edge="1" parent="1" source="CiWtr2rwPYMFVtfKceDI-50" target="CiWtr2rwPYMFVtfKceDI-41">
          <mxGeometry width="50" height="50" relative="1" as="geometry">
            <mxPoint x="470" y="260" as="sourcePoint" />
            <mxPoint x="520" y="210" as="targetPoint" />
          </mxGeometry>
        </mxCell>
      </root>
    </mxGraphModel>
  </diagram>
</mxfile>
